<?xml version="1.0" encoding="UTF-8" standalone="no"?>
<!-- Created with Inkscape (http://www.inkscape.org/) -->

<svg
   xmlns:dc="http://purl.org/dc/elements/1.1/"
   xmlns:cc="http://creativecommons.org/ns#"
   xmlns:rdf="http://www.w3.org/1999/02/22-rdf-syntax-ns#"
   xmlns:svg="http://www.w3.org/2000/svg"
   xmlns="http://www.w3.org/2000/svg"
   xmlns:sodipodi="http://sodipodi.sourceforge.net/DTD/sodipodi-0.dtd"
   xmlns:inkscape="http://www.inkscape.org/namespaces/inkscape"
   id="svg2"
   version="1.1"
   inkscape:version="0.48.1 r9760"
   width="125"
   height="125"
   xml:space="preserve"
   sodipodi:docname="The_Noun_Project_Single_Icon_Template_v1.1.ai"><metadata
     id="metadata8"><rdf:RDF><cc:Work
         rdf:about=""><dc:format>image/svg+xml</dc:format><dc:type
           rdf:resource="http://purl.org/dc/dcmitype/StillImage" /><dc:title></dc:title></cc:Work></rdf:RDF></metadata><defs
     id="defs6" /><sodipodi:namedview
     pagecolor="#ffffff"
     bordercolor="#666666"
     borderopacity="1"
     objecttolerance="10"
     gridtolerance="10"
     guidetolerance="10"
     inkscape:pageopacity="0"
     inkscape:pageshadow="2"
     inkscape:window-width="1366"
     inkscape:window-height="746"
     id="namedview4"
     showgrid="false"
     showguides="true"
     inkscape:guide-bbox="true"
     inkscape:zoom="2.688"
     inkscape:cx="84.138665"
     inkscape:cy="55.64602"
     inkscape:window-x="0"
     inkscape:window-y="0"
     inkscape:window-maximized="1"
     inkscape:current-layer="g10"><sodipodi:guide
       orientation="0,1"
       position="50.223214,130.02232"
       id="guide3817" /></sodipodi:namedview><g
     id="g10"
     inkscape:groupmode="layer"
     inkscape:label="The_Noun_Project_Single_Icon_Template_v1.1"
     transform="matrix(1.25,0,0,-1.25,0,125)"><path
       style="fill:#000000;fill-opacity:1;fill-rule:nonzero;stroke:none"
       d="m 26.8125,45.40625 c -3.709822,0 -6.6875,2.977679 -6.6875,6.6875 l 0,56.90625 c 0,3.70982 2.977678,6.71875 6.6875,6.71875 l 71.4375,0 c 3.70982,0 6.6875,-3.00893 6.6875,-6.71875 l 0,-56.90625 c 0,-3.709821 -2.97768,-6.6875 -6.6875,-6.6875 l -71.4375,0 z M 62.53125,55.4375 c 6.492414,0 11.75,5.257586 11.75,11.75 0,4.034507 -2.028158,7.601636 -5.125,9.71875 l 0,25.65625 c 0,1.70511 -1.388639,3.09375 -3.09375,3.09375 l -7.5,0 c -1.705111,0 -3.09375,-1.38864 -3.09375,-3.09375 l 0,-25.96875 c -2.852,-2.144964 -4.6875,-5.562866 -4.6875,-9.40625 0,-6.492414 5.257586,-11.75 11.75,-11.75 z"
       transform="matrix(0.8,0,0,-0.8,0.2726176,96.130953)"
       id="rect2987"
       inkscape:connector-curvature="0" /><path
       style="fill:none;stroke:#000000;stroke-width:13.69999981;stroke-linecap:butt;stroke-linejoin:miter;stroke-miterlimit:4;stroke-opacity:1;stroke-dasharray:none"
       d="m 33.110119,42.782738 0,-24.553571 C 42.410714,3.5342276 81.473214,4.4642859 90.029762,17.857143 l 0,11.532738"
       id="path3819"
       inkscape:connector-curvature="0"
       transform="matrix(0.8,0,0,-0.8,1.0416652,97.321429)"
       sodipodi:nodetypes="cccc" /></g></svg>